<mxfile host="app.diagrams.net" modified="2020-10-19T01:53:08.100Z" agent="5.0 (Windows NT 10.0; Win64; x64) AppleWebKit/537.36 (KHTML, like Gecko) Chrome/86.0.4240.75 Safari/537.36" etag="dWuQnaIRRd2GvV7w0byk" version="13.8.0" type="github">
  <diagram id="_JCe7gN5VAZVSvEKCgeh" name="Page-1">
    <mxGraphModel dx="1648" dy="793" grid="1" gridSize="10" guides="1" tooltips="1" connect="1" arrows="1" fold="1" page="1" pageScale="1" pageWidth="827" pageHeight="1169" math="0" shadow="0">
      <root>
        <mxCell id="0" />
        <mxCell id="1" parent="0" />
        <mxCell id="38xJzZRthz7V4WknMHSS-1" value="회원" style="whiteSpace=wrap;html=1;aspect=fixed;fontSize=16;labelBorderColor=none;" parent="1" vertex="1">
          <mxGeometry x="200" y="160" width="80" height="80" as="geometry" />
        </mxCell>
        <mxCell id="38xJzZRthz7V4WknMHSS-2" value="글" style="whiteSpace=wrap;html=1;aspect=fixed;fontSize=16;labelBorderColor=none;" parent="1" vertex="1">
          <mxGeometry x="200" y="400" width="80" height="80" as="geometry" />
        </mxCell>
        <mxCell id="38xJzZRthz7V4WknMHSS-3" value="댓글" style="whiteSpace=wrap;html=1;aspect=fixed;fontSize=16;labelBorderColor=none;" parent="1" vertex="1">
          <mxGeometry x="560" y="400" width="80" height="80" as="geometry" />
        </mxCell>
        <mxCell id="38xJzZRthz7V4WknMHSS-4" value="가입일" style="ellipse;whiteSpace=wrap;html=1;aspect=fixed;fontSize=16;fontColor=#000000;" parent="1" vertex="1">
          <mxGeometry x="200" width="80" height="80" as="geometry" />
        </mxCell>
        <mxCell id="38xJzZRthz7V4WknMHSS-5" value="정보" style="ellipse;whiteSpace=wrap;html=1;aspect=fixed;fontSize=16;fontColor=#000000;" parent="1" vertex="1">
          <mxGeometry x="40" width="80" height="80" as="geometry" />
        </mxCell>
        <mxCell id="38xJzZRthz7V4WknMHSS-6" value="아이디" style="ellipse;whiteSpace=wrap;html=1;aspect=fixed;fontSize=16;fontColor=#000000;" parent="1" vertex="1">
          <mxGeometry x="360" width="80" height="80" as="geometry" />
        </mxCell>
        <mxCell id="38xJzZRthz7V4WknMHSS-7" value="" style="endArrow=none;html=1;fontSize=16;fontColor=#000000;exitX=1;exitY=1;exitDx=0;exitDy=0;entryX=0;entryY=0;entryDx=0;entryDy=0;" parent="1" source="38xJzZRthz7V4WknMHSS-5" target="38xJzZRthz7V4WknMHSS-1" edge="1">
          <mxGeometry width="50" height="50" relative="1" as="geometry">
            <mxPoint x="170" y="290" as="sourcePoint" />
            <mxPoint x="220" y="240" as="targetPoint" />
          </mxGeometry>
        </mxCell>
        <mxCell id="38xJzZRthz7V4WknMHSS-9" value="" style="endArrow=none;html=1;fontSize=16;fontColor=#000000;exitX=0;exitY=1;exitDx=0;exitDy=0;entryX=1;entryY=0;entryDx=0;entryDy=0;" parent="1" source="38xJzZRthz7V4WknMHSS-6" edge="1" target="38xJzZRthz7V4WknMHSS-1">
          <mxGeometry width="50" height="50" relative="1" as="geometry">
            <mxPoint x="150" y="250" as="sourcePoint" />
            <mxPoint x="200" y="200" as="targetPoint" />
          </mxGeometry>
        </mxCell>
        <mxCell id="38xJzZRthz7V4WknMHSS-10" value="" style="endArrow=none;html=1;fontSize=16;fontColor=#000000;exitX=0.5;exitY=0;exitDx=0;exitDy=0;" parent="1" source="38xJzZRthz7V4WknMHSS-1" edge="1">
          <mxGeometry width="50" height="50" relative="1" as="geometry">
            <mxPoint x="190" y="130" as="sourcePoint" />
            <mxPoint x="240" y="80" as="targetPoint" />
          </mxGeometry>
        </mxCell>
        <mxCell id="38xJzZRthz7V4WknMHSS-11" value="글내용" style="ellipse;whiteSpace=wrap;html=1;aspect=fixed;fontSize=16;fontColor=#000000;" parent="1" vertex="1">
          <mxGeometry x="80" y="600" width="80" height="80" as="geometry" />
        </mxCell>
        <mxCell id="38xJzZRthz7V4WknMHSS-12" value="작성일" style="ellipse;whiteSpace=wrap;html=1;aspect=fixed;fontSize=16;fontColor=#000000;" parent="1" vertex="1">
          <mxGeometry x="200" y="600" width="80" height="80" as="geometry" />
        </mxCell>
        <mxCell id="38xJzZRthz7V4WknMHSS-13" value="작성자" style="ellipse;whiteSpace=wrap;html=1;aspect=fixed;fontSize=16;fontColor=#000000;" parent="1" vertex="1">
          <mxGeometry y="520" width="80" height="80" as="geometry" />
        </mxCell>
        <mxCell id="38xJzZRthz7V4WknMHSS-14" value="글번호" style="ellipse;whiteSpace=wrap;html=1;aspect=fixed;fontSize=16;fontColor=#000000;" parent="1" vertex="1">
          <mxGeometry y="400" width="80" height="80" as="geometry" />
        </mxCell>
        <mxCell id="38xJzZRthz7V4WknMHSS-15" value="작성자" style="ellipse;fontSize=16;fontColor=#000000;html=1;whiteSpace=wrap;aspect=fixed;" parent="1" vertex="1">
          <mxGeometry x="760" y="520" width="80" height="80" as="geometry" />
        </mxCell>
        <mxCell id="38xJzZRthz7V4WknMHSS-16" value="댓글번호" style="ellipse;whiteSpace=wrap;html=1;aspect=fixed;fillColor=#ffffff;fontSize=16;fontColor=#000000;" parent="1" vertex="1">
          <mxGeometry x="760" y="400" width="80" height="80" as="geometry" />
        </mxCell>
        <mxCell id="38xJzZRthz7V4WknMHSS-17" value="내용" style="ellipse;whiteSpace=wrap;html=1;aspect=fixed;fillColor=#ffffff;fontSize=16;fontColor=#000000;" parent="1" vertex="1">
          <mxGeometry x="680" y="600" width="80" height="80" as="geometry" />
        </mxCell>
        <mxCell id="38xJzZRthz7V4WknMHSS-18" value="글번호" style="ellipse;whiteSpace=wrap;html=1;aspect=fixed;fillColor=#ffffff;fontSize=16;fontColor=#000000;" parent="1" vertex="1">
          <mxGeometry x="440" y="600" width="80" height="80" as="geometry" />
        </mxCell>
        <mxCell id="38xJzZRthz7V4WknMHSS-19" value="작성일" style="ellipse;whiteSpace=wrap;html=1;aspect=fixed;fillColor=#ffffff;fontSize=16;fontColor=#000000;" parent="1" vertex="1">
          <mxGeometry x="560" y="600" width="80" height="80" as="geometry" />
        </mxCell>
        <mxCell id="38xJzZRthz7V4WknMHSS-20" value="" style="endArrow=none;html=1;fontSize=16;fontColor=#000000;entryX=0;entryY=0.5;entryDx=0;entryDy=0;" parent="1" target="38xJzZRthz7V4WknMHSS-16" edge="1">
          <mxGeometry width="50" height="50" relative="1" as="geometry">
            <mxPoint x="640" y="440" as="sourcePoint" />
            <mxPoint x="750" y="440" as="targetPoint" />
          </mxGeometry>
        </mxCell>
        <mxCell id="38xJzZRthz7V4WknMHSS-21" value="" style="endArrow=none;html=1;fontSize=16;fontColor=#000000;exitX=0.063;exitY=0.275;exitDx=0;exitDy=0;exitPerimeter=0;" parent="1" source="38xJzZRthz7V4WknMHSS-15" edge="1">
          <mxGeometry width="50" height="50" relative="1" as="geometry">
            <mxPoint x="590" y="530" as="sourcePoint" />
            <mxPoint x="640" y="480" as="targetPoint" />
            <Array as="points" />
          </mxGeometry>
        </mxCell>
        <mxCell id="38xJzZRthz7V4WknMHSS-22" value="" style="endArrow=none;html=1;fontSize=16;fontColor=#000000;" parent="1" source="38xJzZRthz7V4WknMHSS-17" edge="1">
          <mxGeometry width="50" height="50" relative="1" as="geometry">
            <mxPoint x="590" y="530" as="sourcePoint" />
            <mxPoint x="640" y="480" as="targetPoint" />
          </mxGeometry>
        </mxCell>
        <mxCell id="38xJzZRthz7V4WknMHSS-23" value="" style="endArrow=none;html=1;fontSize=16;fontColor=#000000;exitX=0.5;exitY=0;exitDx=0;exitDy=0;" parent="1" source="38xJzZRthz7V4WknMHSS-19" edge="1">
          <mxGeometry width="50" height="50" relative="1" as="geometry">
            <mxPoint x="550" y="530" as="sourcePoint" />
            <mxPoint x="600" y="480" as="targetPoint" />
          </mxGeometry>
        </mxCell>
        <mxCell id="38xJzZRthz7V4WknMHSS-24" value="" style="endArrow=none;html=1;fontSize=16;fontColor=#000000;exitX=0.5;exitY=0;exitDx=0;exitDy=0;" parent="1" source="38xJzZRthz7V4WknMHSS-18" edge="1">
          <mxGeometry width="50" height="50" relative="1" as="geometry">
            <mxPoint x="510" y="530" as="sourcePoint" />
            <mxPoint x="560" y="480" as="targetPoint" />
          </mxGeometry>
        </mxCell>
        <mxCell id="38xJzZRthz7V4WknMHSS-25" value="" style="endArrow=none;html=1;fontSize=16;fontColor=#000000;exitX=0.738;exitY=0.05;exitDx=0;exitDy=0;exitPerimeter=0;" parent="1" source="38xJzZRthz7V4WknMHSS-11" edge="1">
          <mxGeometry width="50" height="50" relative="1" as="geometry">
            <mxPoint x="150" y="530" as="sourcePoint" />
            <mxPoint x="200" y="480" as="targetPoint" />
          </mxGeometry>
        </mxCell>
        <mxCell id="38xJzZRthz7V4WknMHSS-26" value="" style="endArrow=none;html=1;fontSize=16;fontColor=#000000;exitX=0.5;exitY=0;exitDx=0;exitDy=0;" parent="1" source="38xJzZRthz7V4WknMHSS-12" edge="1">
          <mxGeometry width="50" height="50" relative="1" as="geometry">
            <mxPoint x="190" y="530" as="sourcePoint" />
            <mxPoint x="240" y="480" as="targetPoint" />
          </mxGeometry>
        </mxCell>
        <mxCell id="38xJzZRthz7V4WknMHSS-27" value="" style="endArrow=none;html=1;fontSize=16;fontColor=#000000;" parent="1" source="38xJzZRthz7V4WknMHSS-13" edge="1">
          <mxGeometry width="50" height="50" relative="1" as="geometry">
            <mxPoint x="79" y="541" as="sourcePoint" />
            <mxPoint x="200" y="480" as="targetPoint" />
          </mxGeometry>
        </mxCell>
        <mxCell id="38xJzZRthz7V4WknMHSS-28" value="" style="endArrow=none;html=1;fontSize=16;fontColor=#000000;exitX=1;exitY=0.5;exitDx=0;exitDy=0;" parent="1" source="38xJzZRthz7V4WknMHSS-14" edge="1">
          <mxGeometry width="50" height="50" relative="1" as="geometry">
            <mxPoint x="150" y="490" as="sourcePoint" />
            <mxPoint x="200" y="440" as="targetPoint" />
          </mxGeometry>
        </mxCell>
        <mxCell id="38xJzZRthz7V4WknMHSS-29" value="쓰다" style="rhombus;whiteSpace=wrap;html=1;fillColor=#ffffff;fontSize=16;fontColor=#000000;" parent="1" vertex="1">
          <mxGeometry x="200" y="280" width="80" height="80" as="geometry" />
        </mxCell>
        <mxCell id="38xJzZRthz7V4WknMHSS-30" value="포함" style="rhombus;whiteSpace=wrap;html=1;fillColor=#ffffff;fontSize=16;fontColor=#000000;" parent="1" vertex="1">
          <mxGeometry x="380" y="400" width="80" height="80" as="geometry" />
        </mxCell>
        <mxCell id="38xJzZRthz7V4WknMHSS-31" value="쓰다" style="rhombus;whiteSpace=wrap;html=1;fillColor=#ffffff;fontSize=16;fontColor=#000000;" parent="1" vertex="1">
          <mxGeometry x="390" y="280" width="80" height="80" as="geometry" />
        </mxCell>
        <mxCell id="38xJzZRthz7V4WknMHSS-32" value="" style="endArrow=none;html=1;fontSize=16;fontColor=#000000;entryX=0.5;entryY=0;entryDx=0;entryDy=0;endFill=0;startArrow=ERone;startFill=0;" parent="1" target="38xJzZRthz7V4WknMHSS-31" edge="1">
          <mxGeometry width="50" height="50" relative="1" as="geometry">
            <mxPoint x="280" y="200" as="sourcePoint" />
            <mxPoint x="330" y="150" as="targetPoint" />
            <Array as="points">
              <mxPoint x="430" y="200" />
            </Array>
          </mxGeometry>
        </mxCell>
        <mxCell id="38xJzZRthz7V4WknMHSS-33" value="" style="endArrow=none;html=1;fontSize=16;fontColor=#000000;exitX=0.5;exitY=0;exitDx=0;exitDy=0;startArrow=ERzeroToMany;startFill=1;" parent="1" source="38xJzZRthz7V4WknMHSS-2" edge="1">
          <mxGeometry width="50" height="50" relative="1" as="geometry">
            <mxPoint x="190" y="410" as="sourcePoint" />
            <mxPoint x="240" y="360" as="targetPoint" />
          </mxGeometry>
        </mxCell>
        <mxCell id="38xJzZRthz7V4WknMHSS-34" value="" style="endArrow=ERone;html=1;fontSize=16;fontColor=#000000;exitX=0.5;exitY=0;exitDx=0;exitDy=0;startArrow=none;startFill=0;endFill=0;" parent="1" source="38xJzZRthz7V4WknMHSS-29" edge="1">
          <mxGeometry width="50" height="50" relative="1" as="geometry">
            <mxPoint x="190" y="290" as="sourcePoint" />
            <mxPoint x="240" y="240" as="targetPoint" />
          </mxGeometry>
        </mxCell>
        <mxCell id="38xJzZRthz7V4WknMHSS-35" value="" style="endArrow=ERzeroToMany;html=1;fontSize=16;fontColor=#000000;entryX=0;entryY=0.5;entryDx=0;entryDy=0;endFill=1;" parent="1" target="38xJzZRthz7V4WknMHSS-3" edge="1">
          <mxGeometry width="50" height="50" relative="1" as="geometry">
            <mxPoint x="460" y="440" as="sourcePoint" />
            <mxPoint x="510" y="390" as="targetPoint" />
          </mxGeometry>
        </mxCell>
        <mxCell id="38xJzZRthz7V4WknMHSS-36" value="" style="endArrow=none;html=1;fontSize=16;fontColor=#000000;entryX=0;entryY=0.5;entryDx=0;entryDy=0;startArrow=ERone;startFill=0;" parent="1" target="38xJzZRthz7V4WknMHSS-30" edge="1">
          <mxGeometry width="50" height="50" relative="1" as="geometry">
            <mxPoint x="280" y="440" as="sourcePoint" />
            <mxPoint x="330" y="390" as="targetPoint" />
          </mxGeometry>
        </mxCell>
        <mxCell id="38xJzZRthz7V4WknMHSS-37" value="" style="endArrow=none;html=1;fontSize=16;fontColor=#000000;exitX=0.5;exitY=0;exitDx=0;exitDy=0;entryX=1;entryY=0.5;entryDx=0;entryDy=0;startArrow=ERzeroToMany;startFill=1;" parent="1" source="38xJzZRthz7V4WknMHSS-3" target="38xJzZRthz7V4WknMHSS-31" edge="1">
          <mxGeometry width="50" height="50" relative="1" as="geometry">
            <mxPoint x="560" y="280" as="sourcePoint" />
            <mxPoint x="610" y="230" as="targetPoint" />
            <Array as="points">
              <mxPoint x="600" y="320" />
              <mxPoint x="470" y="320" />
            </Array>
          </mxGeometry>
        </mxCell>
        <mxCell id="WU3ueGBvOvMx7ThtM8Tq-3" value="관리자" style="whiteSpace=wrap;html=1;aspect=fixed;fontSize=16;" vertex="1" parent="1">
          <mxGeometry x="-120" y="160" width="80" height="80" as="geometry" />
        </mxCell>
        <mxCell id="WU3ueGBvOvMx7ThtM8Tq-4" value="" style="endArrow=ERone;html=1;exitX=1;exitY=0.5;exitDx=0;exitDy=0;entryX=0;entryY=0.5;entryDx=0;entryDy=0;fontSize=16;endFill=0;" edge="1" parent="1" source="WU3ueGBvOvMx7ThtM8Tq-9" target="38xJzZRthz7V4WknMHSS-1">
          <mxGeometry width="50" height="50" relative="1" as="geometry">
            <mxPoint x="80" y="480" as="sourcePoint" />
            <mxPoint x="130" y="430" as="targetPoint" />
          </mxGeometry>
        </mxCell>
        <mxCell id="WU3ueGBvOvMx7ThtM8Tq-5" value="아이디" style="ellipse;whiteSpace=wrap;html=1;aspect=fixed;fontSize=16;" vertex="1" parent="1">
          <mxGeometry x="-240" width="80" height="80" as="geometry" />
        </mxCell>
        <mxCell id="WU3ueGBvOvMx7ThtM8Tq-6" value="정보" style="ellipse;whiteSpace=wrap;html=1;aspect=fixed;fontSize=16;" vertex="1" parent="1">
          <mxGeometry x="-120" width="80" height="80" as="geometry" />
        </mxCell>
        <mxCell id="WU3ueGBvOvMx7ThtM8Tq-7" value="" style="endArrow=none;html=1;fontSize=16;exitX=1;exitY=1;exitDx=0;exitDy=0;" edge="1" parent="1" source="WU3ueGBvOvMx7ThtM8Tq-5">
          <mxGeometry width="50" height="50" relative="1" as="geometry">
            <mxPoint x="-170" y="210" as="sourcePoint" />
            <mxPoint x="-120" y="160" as="targetPoint" />
          </mxGeometry>
        </mxCell>
        <mxCell id="WU3ueGBvOvMx7ThtM8Tq-8" value="" style="endArrow=none;html=1;fontSize=16;entryX=0.5;entryY=1;entryDx=0;entryDy=0;exitX=0.5;exitY=0;exitDx=0;exitDy=0;" edge="1" parent="1" source="WU3ueGBvOvMx7ThtM8Tq-3" target="WU3ueGBvOvMx7ThtM8Tq-6">
          <mxGeometry width="50" height="50" relative="1" as="geometry">
            <mxPoint x="-110" y="200" as="sourcePoint" />
            <mxPoint x="-60" y="150" as="targetPoint" />
          </mxGeometry>
        </mxCell>
        <mxCell id="WU3ueGBvOvMx7ThtM8Tq-9" value="등록" style="rhombus;whiteSpace=wrap;html=1;fontSize=16;" vertex="1" parent="1">
          <mxGeometry x="40" y="160" width="80" height="80" as="geometry" />
        </mxCell>
        <mxCell id="WU3ueGBvOvMx7ThtM8Tq-10" value="" style="endArrow=none;html=1;exitX=1;exitY=0.5;exitDx=0;exitDy=0;entryX=0;entryY=0.5;entryDx=0;entryDy=0;fontSize=16;startArrow=ERzeroToOne;startFill=1;" edge="1" parent="1" source="WU3ueGBvOvMx7ThtM8Tq-3" target="WU3ueGBvOvMx7ThtM8Tq-9">
          <mxGeometry width="50" height="50" relative="1" as="geometry">
            <mxPoint x="-40" y="199.9999999999999" as="sourcePoint" />
            <mxPoint x="200" y="199.9999999999999" as="targetPoint" />
          </mxGeometry>
        </mxCell>
        <mxCell id="WU3ueGBvOvMx7ThtM8Tq-11" value="강의" style="whiteSpace=wrap;html=1;aspect=fixed;fontSize=16;" vertex="1" parent="1">
          <mxGeometry x="747" y="160" width="80" height="80" as="geometry" />
        </mxCell>
        <mxCell id="WU3ueGBvOvMx7ThtM8Tq-17" value="강의신청" style="whiteSpace=wrap;html=1;aspect=fixed;fontSize=16;" vertex="1" parent="1">
          <mxGeometry x="480" y="160" width="80" height="80" as="geometry" />
        </mxCell>
        <mxCell id="WU3ueGBvOvMx7ThtM8Tq-18" value="" style="endArrow=ERzeroToMany;html=1;fontSize=16;entryX=0;entryY=0.25;entryDx=0;entryDy=0;endFill=1;startArrow=ERone;startFill=0;" edge="1" parent="1" target="WU3ueGBvOvMx7ThtM8Tq-17">
          <mxGeometry width="50" height="50" relative="1" as="geometry">
            <mxPoint x="280" y="180" as="sourcePoint" />
            <mxPoint x="330" y="130" as="targetPoint" />
          </mxGeometry>
        </mxCell>
        <mxCell id="WU3ueGBvOvMx7ThtM8Tq-19" value="" style="endArrow=ERone;html=1;fontSize=16;exitX=1;exitY=0.5;exitDx=0;exitDy=0;startArrow=ERzeroToMany;startFill=1;endFill=0;" edge="1" parent="1" source="WU3ueGBvOvMx7ThtM8Tq-17">
          <mxGeometry width="50" height="50" relative="1" as="geometry">
            <mxPoint x="697" y="250" as="sourcePoint" />
            <mxPoint x="747" y="200" as="targetPoint" />
          </mxGeometry>
        </mxCell>
        <mxCell id="WU3ueGBvOvMx7ThtM8Tq-20" value="다관계 처리 방법" style="text;html=1;strokeColor=none;fillColor=none;align=center;verticalAlign=middle;whiteSpace=wrap;rounded=0;fontSize=16;" vertex="1" parent="1">
          <mxGeometry x="450" y="130" width="140" height="20" as="geometry" />
        </mxCell>
      </root>
    </mxGraphModel>
  </diagram>
</mxfile>
